<?xml version="1.0" standalone="no"?><!DOCTYPE svg PUBLIC "-//W3C//DTD SVG 1.1//EN" "http://www.w3.org/Graphics/SVG/1.1/DTD/svg11.dtd"><svg t="1606892396297" class="icon" viewBox="0 0 1024 1024" version="1.1" xmlns="http://www.w3.org/2000/svg" p-id="3131" xmlns:xlink="http://www.w3.org/1999/xlink" width="200" height="200"><defs><style type="text/css"></style></defs><path d="M816.298667 816.440889a27.392 27.392 0 0 1-40.334223-0.824889 31.573333 31.573333 0 0 1 0.768-42.752c66.616889-67.982222 104.903111-161.479111 104.903112-261.489778 0-99.441778-37.831111-192.398222-103.765334-260.323555a31.573333 31.573333 0 0 1-0.568889-42.780445 27.392 27.392 0 0 1 40.305778-0.597333C894.464 286.862222 938.666667 395.377778 938.666667 511.374222c0 116.622222-44.714667 225.763556-122.368 305.066667z m-113.322667-142.478222a28.017778 28.017778 0 0 1-40.248889 0.369777 29.496889 29.496889 0 0 1-0.369778-41.073777 175.559111 175.559111 0 0 0 48.867556-122.083556 175.559111 175.559111 0 0 0-47.502222-120.689778 29.496889 29.496889 0 0 1 0.853333-41.073777 28.017778 28.017778 0 0 1 40.220444 0.853333 234.325333 234.325333 0 0 1 63.317334 160.910222c0 61.696-23.665778 119.637333-65.137778 162.787556z m-193.592889 255.516444l-200.049778-130.304H142.222222a56.888889 56.888889 0 0 1-56.888889-56.888889V301.141333a56.888889 56.888889 0 0 1 56.888889-56.888889h167.111111l197.006223-147.626666A56.888889 56.888889 0 0 1 597.333333 142.193778v739.640889a56.888889 56.888889 0 0 1-87.950222 47.672889z" p-id="3132" fill="#ffffff"></path></svg>